<?xml version="1.0" standalone="no"?>
<!DOCTYPE svg PUBLIC "-//W3C//DTD SVG 20010904//EN"
 "http://www.w3.org/TR/2001/REC-SVG-20010904/DTD/svg10.dtd">
<svg version="1.0" xmlns="http://www.w3.org/2000/svg"
 width="300.000000pt" height="300.000000pt" viewBox="0 0 300.000000 300.000000"
 preserveAspectRatio="xMidYMid meet">

<g transform="translate(0.000000,300.000000) scale(0.100000,-0.100000)"
fill="#000000" stroke="none">
<path d="M1378 2690 c-446 -51 -834 -321 -1032 -717 -137 -275 -163 -618 -70
-913 102 -323 332 -594 636 -751 212 -109 362 -144 613 -144 136 0 200 5 263
18 400 88 731 337 907 683 95 186 130 343 129 574 0 176 -17 276 -70 418 -131
347 -412 624 -764 755 -183 68 -425 98 -612 77z m412 -109 c47 -11 119 -31
160 -46 77 -28 250 -114 249 -124 0 -3 -398 -342 -885 -754 l-885 -747 -23 52
c-73 166 -101 318 -93 516 8 225 66 403 191 592 197 295 494 475 881 534 70
10 322 -4 405 -23z m485 -229 c0 -7 -403 -354 -895 -771 -781 -662 -897 -757
-908 -743 -7 9 -11 19 -10 24 2 4 401 344 888 757 851 722 925 780 925 733z
m75 -57 c11 -13 10 -18 -3 -28 -8 -7 -416 -352 -907 -767 -490 -415 -895 -756
-900 -758 -5 -2 -13 5 -18 15 -9 16 48 67 415 378 234 198 642 543 907 767
264 224 484 408 487 408 4 0 12 -7 19 -15z m65 -104 c-11 -10 -360 -306 -775
-656 -415 -351 -811 -686 -880 -744 -175 -148 -160 -137 -171 -120 -5 8 -9 17
-9 21 0 4 410 355 911 779 832 703 913 769 928 755 14 -15 14 -18 -4 -35z m28
-107 c-32 -29 -444 -378 -915 -777 -802 -678 -858 -724 -872 -708 -15 17 43
69 901 795 832 703 919 774 931 759 12 -16 7 -24 -45 -69z m138 -70 c53 -87
97 -194 126 -303 36 -139 43 -356 15 -496 -85 -427 -385 -765 -802 -905 -238
-80 -548 -80 -790 -1 -100 33 -257 115 -334 173 -39 29 -71 58 -72 63 -4 13
1798 1536 1811 1532 6 -2 26 -30 46 -63z"/>
</g>
</svg>
